# xmcd
#
# Track frame offsets:
#	182
#	17915
#	30805
#	47442
#	60237
#	76347
#	93590
#	107885
#	125750
#	141445
#	154755
#	170127
#	187827
#	205237
#
# Disc length: 2914 seconds
#
# Revision: 2
# Processed by: cddbd v1.5.2PL0 Copyright (c) Steve Scherf et al.
# Submitted via: audiograbber 1.83.01
#
DISCID=b50b600e
DTITLE=Alcymar Monteiro - Sucessos
DYEAR=1996
DGENRE=Forró
TTITLE0=Nem Olhou Prá Mim
TTITLE1=Forró Brasileiro
TTITLE2=Convivência
TTITLE3=Portas e Janelas
TTITLE4=Forrologia
TTITLE5=Sorrindo a Toa
TTITLE6=Forró do Bilinguim
TTITLE7=Cidade Nua
TTITLE8=Forró das Multidões
TTITLE9=Quem Me Quer?
TTITLE10=It's a Long Way - Prece Ao Vento
TTITLE11=Cavaleiro Alado
TTITLE12=Bota Fogo No Forró
TTITLE13=Um Recado, Uma Sanfona, Uma Rabeca
EXTD=Dados Por - Dayvison de Azevedo - Recife - PE\nFacebook - https://www.face
EXTD=book.com/profile.php?id=100006142608616
EXTT0=
EXTT1=
EXTT2=
EXTT3=
EXTT4=
EXTT5=
EXTT6=
EXTT7=
EXTT8=
EXTT9=
EXTT10=
EXTT11=
EXTT12=
EXTT13=
PLAYORDER=
